<svg xmlns="http://www.w3.org/2000/svg" width="427" height="356.125" viewBox="0 0 427 356.125">
  <g id="noun-download-1049234" transform="translate(-139.12 -92.75)">
    <path id="Path_1" data-name="Path 1" d="M566.12,304.5v96.25c0,26.25-21.875,48.125-48.125,48.125H187.245c-26.25,0-48.125-21.875-48.125-48.125V304.5a13.125,13.125,0,0,1,26.25,0v96.25a21.663,21.663,0,0,0,21.875,21.875h330.75A21.663,21.663,0,0,0,539.87,400.75V304.5a13.457,13.457,0,0,1,13.125-13.125A12.886,12.886,0,0,1,566.12,304.5ZM327.24,345.625a35.911,35.911,0,0,0,50.75,0l61.25-61.25A12.993,12.993,0,0,0,420.865,266L365.74,321.125V105.875a13.125,13.125,0,0,0-26.25,0v214.38L284.365,265.13a12.993,12.993,0,0,0-18.375,18.375Z" fill="#fff"/>
  </g>
</svg>
