<svg xmlns="http://www.w3.org/2000/svg" width="584.836" height="551.076" viewBox="0 0 584.836 551.076">
  <g id="noun-favorite-3387949" transform="translate(-57.583 -2.763)">
    <path id="Path_24" data-name="Path 24" d="M601.61,297.78l.625.629L346.8,553.839l-239.95-239.97A180.692,180.692,0,0,1,345.96,44.754,180.659,180.659,0,0,1,601.615,297.782ZM347.33,107.28,332.662,92.612l-3.523-3.289a135.5,135.5,0,0,0-186.71,4.66c-51.887,51.887-53,135.64-3.191,188.41l207.57,207.57,191.65-191.64-.5-.5,18.23-17.254,1.383-1.363a135.492,135.492,0,0,0,0-191.61c-52.91-52.906-138.7-52.906-191.46-.145l-1.77,1.793-2.762,2.93L348.11,107.217l-.383-.359Z" fill="#f50"/>
  </g>
</svg>
