<svg xmlns="http://www.w3.org/2000/svg" width="490.132" height="315.177" viewBox="0 0 490.132 315.177">
  <g id="noun-hide-3603852" transform="translate(-104.942 -122.432)">
    <path id="Path_45" data-name="Path 45" d="M591.32,269.32C586.769,263.371,477.05,122.5,350,122.5a174.744,174.744,0,0,0-21,1.4,17.647,17.647,0,1,0,4.55,35A131.785,131.785,0,0,1,350,157.5c91,0,177.1,90.477,204.57,122.5a520.716,520.716,0,0,1-41.3,41.648,17.538,17.538,0,0,0,23.454,26.079A540.7,540.7,0,0,0,591.144,291.2a17.491,17.491,0,0,0,.176-21.875Z" fill="#f50"/>
    <path id="Path_46" data-name="Path 46" d="M312.9,218.23l-90.473-90.652a17.573,17.573,0,0,0-24.852,24.852L216.3,171.153a567.13,567.13,0,0,0-107.45,97.828,17.492,17.492,0,0,0,0,22.046c4.9,6.477,120.4,146.48,241.15,146.48a217.493,217.493,0,0,0,103.07-29.574l24.5,24.5a17.573,17.573,0,1,0,24.852-24.852Zm-10.148,39.2,70,70a52.5,52.5,0,0,1-70-70ZM350,402.5c-86.1,0-175-90.477-204.23-122.5a526.6,526.6,0,0,1,91.176-80.676,20.188,20.188,0,0,0,3.852-3.848L277.027,231.7l0,0A87.519,87.519,0,0,0,398.3,352.976L427,381.851A176.583,176.583,0,0,1,350,402.5Z" fill="#f50"/>
  </g>
</svg>
