<svg xmlns="http://www.w3.org/2000/svg" width="560.025" height="461.276" viewBox="0 0 560.025 461.276">
  <g id="noun-arrow-2094742" transform="translate(-22.004 -178.567)">
    <path id="Path_45" data-name="Path 45" d="M616.79,246.96,432.44,62.61A45.135,45.135,0,1,0,368.6,126.392L477.571,235.2H115.141a45.137,45.137,0,0,0,0,90.273h361.42L368.6,433.615a45.135,45.135,0,0,0,63.84,63.781l184.35-184.35a44.8,44.8,0,0,0,13.215-31.918,6.715,6.715,0,0,0,0-1.121,7.671,7.671,0,0,0,0-1.121,45.194,45.194,0,0,0-13.215-31.918Z" transform="translate(-48 130)" fill="#fff"/>
  </g>
</svg>
