<svg xmlns="http://www.w3.org/2000/svg" width="489.983" height="489.987" viewBox="0 0 489.983 489.987">
  <path id="noun-search-4828610" d="M224.68,380.57,110.13,495.12a17.5,17.5,0,0,0,24.742,24.742l114.55-114.55A209.072,209.072,0,0,0,384.992,455c115.9,0,210-94.1,210-210s-94.1-210-210-210-210,94.1-210,210a209.051,209.051,0,0,0,49.684,135.57ZM385,70c96.582,0,175,78.418,175,175S481.582,420,385,420,210,341.582,210,245,288.418,70,385,70Z" transform="translate(-105.009 -34.996)" fill="#fff" fill-rule="evenodd"/>
</svg>
