<svg xmlns="http://www.w3.org/2000/svg" width="310.011" height="326.476" viewBox="0 0 310.011 326.476">
  <g id="noun-pie-chart-923624" transform="translate(-194.999 -116.705)">
    <path id="Path_1" data-name="Path 1" d="M482.33,227.08l7.055-3.527,15.625-7.84-7.84-15.625A151.124,151.124,0,0,0,362.1,116.7H344.627v24.414a151.078,151.078,0,1,0,108.2,257.824,151.476,151.476,0,0,0,32.367-47.992,149.921,149.921,0,0,0,11.871-58.8,151.839,151.839,0,0,0-4.145-35.281A148.7,148.7,0,0,0,482.33,227.08ZM346.03,425.77a133.564,133.564,0,0,1-1.4-267.12V296.08l25.258-12.656,96.824-48.5A133.606,133.606,0,0,1,346.031,425.767Z" fill="#fff"/>
  </g>
</svg>
